<svg width="260" height="260" fill="none" xmlns="http://www.w3.org/2000/svg"><circle cx="130" cy="130" r="130" fill="#1378EF"/><path d="M55.363 124.8h4.56c1.184 0 2.23.24 3.136.72a5.126 5.126 0 012.112 1.984c.501.843.752 1.808.752 2.896 0 1.088-.25 2.059-.752 2.912-.501.843-1.205 1.504-2.112 1.984-.907.469-1.952.704-3.136.704h-4.56v-11.2zm4.496 10.176c.981 0 1.84-.192 2.576-.576a4.315 4.315 0 001.712-1.616c.405-.693.608-1.488.608-2.384 0-.896-.203-1.685-.608-2.368a4.175 4.175 0 00-1.712-1.616c-.736-.395-1.595-.592-2.576-.592h-3.312v9.152h3.312zm8.483-7.392h1.136V136h-1.136v-8.416zm.576-1.84a.804.804 0 01-.592-.24.786.786 0 01-.24-.576c0-.213.08-.4.24-.56.16-.16.357-.24.592-.24.234 0 .432.08.592.24.16.149.24.331.24.544 0 .235-.08.432-.24.592a.804.804 0 01-.592.24zm5.977 10.336a6.706 6.706 0 01-1.968-.288c-.619-.203-1.104-.453-1.456-.752l.512-.896c.352.277.794.507 1.328.688a5.416 5.416 0 001.664.256c.768 0 1.333-.117 1.696-.352.373-.245.56-.587.56-1.024 0-.309-.102-.549-.304-.72a1.882 1.882 0 00-.768-.4 9.625 9.625 0 00-1.232-.272 15.573 15.573 0 01-1.648-.384 2.548 2.548 0 01-1.072-.688c-.288-.32-.432-.763-.432-1.328 0-.704.293-1.28.88-1.728.586-.448 1.402-.672 2.448-.672.544 0 1.088.075 1.632.224.544.139.992.325 1.344.56l-.496.912c-.694-.48-1.52-.72-2.48-.72-.726 0-1.275.128-1.648.384-.363.256-.544.592-.544 1.008 0 .32.101.576.304.768.213.192.474.336.784.432.309.085.736.176 1.28.272.672.128 1.21.256 1.616.384.405.128.752.347 1.04.656.288.309.432.736.432 1.28 0 .736-.31 1.323-.928 1.76-.608.427-1.456.64-2.544.64zm9.06 0c-.832 0-1.579-.181-2.24-.544a3.968 3.968 0 01-1.536-1.52c-.374-.661-.56-1.403-.56-2.224 0-.821.186-1.557.56-2.208a3.968 3.968 0 011.536-1.52c.661-.363 1.408-.544 2.24-.544.725 0 1.37.144 1.936.432a3.16 3.16 0 011.36 1.232l-.848.576a2.595 2.595 0 00-1.056-.928 3.073 3.073 0 00-1.392-.32c-.608 0-1.157.139-1.648.416-.48.267-.859.651-1.136 1.152-.267.501-.4 1.072-.4 1.712 0 .651.133 1.227.4 1.728.277.491.656.875 1.136 1.152.49.267 1.04.4 1.648.4a3.2 3.2 0 001.392-.304 2.595 2.595 0 001.056-.928l.848.576a3.27 3.27 0 01-1.36 1.248c-.576.277-1.222.416-1.936.416zm13.111-8.496V136h-1.088v-1.536a3.165 3.165 0 01-1.232 1.2c-.522.277-1.12.416-1.792.416-1.098 0-1.968-.304-2.608-.912-.629-.619-.944-1.52-.944-2.704v-4.88h1.136v4.768c0 .885.22 1.557.656 2.016.438.459 1.062.688 1.872.688.886 0 1.584-.267 2.096-.8.512-.544.768-1.296.768-2.256v-4.416h1.136zm5.438 8.496a6.703 6.703 0 01-1.968-.288c-.619-.203-1.104-.453-1.456-.752l.512-.896c.352.277.795.507 1.328.688a5.415 5.415 0 001.664.256c.768 0 1.333-.117 1.696-.352.373-.245.56-.587.56-1.024 0-.309-.101-.549-.304-.72a1.886 1.886 0 00-.768-.4 9.613 9.613 0 00-1.232-.272 15.555 15.555 0 01-1.648-.384 2.549 2.549 0 01-1.072-.688c-.288-.32-.432-.763-.432-1.328 0-.704.293-1.28.88-1.728.587-.448 1.403-.672 2.448-.672.544 0 1.088.075 1.632.224.544.139.992.325 1.344.56l-.496.912c-.693-.48-1.52-.72-2.48-.72-.725 0-1.275.128-1.648.384-.363.256-.544.592-.544 1.008 0 .32.101.576.304.768.213.192.475.336.784.432.309.085.736.176 1.28.272.672.128 1.211.256 1.616.384s.752.347 1.04.656c.288.309.432.736.432 1.28 0 .736-.309 1.323-.928 1.76-.608.427-1.456.64-2.544.64zm7.828 0a6.713 6.713 0 01-1.968-.288c-.618-.203-1.104-.453-1.456-.752l.512-.896c.352.277.795.507 1.328.688a5.42 5.42 0 001.664.256c.768 0 1.334-.117 1.696-.352.374-.245.56-.587.56-1.024 0-.309-.101-.549-.304-.72a1.873 1.873 0 00-.768-.4 9.613 9.613 0 00-1.232-.272 15.615 15.615 0 01-1.648-.384 2.55 2.55 0 01-1.072-.688c-.288-.32-.432-.763-.432-1.328 0-.704.294-1.28.88-1.728.587-.448 1.403-.672 2.448-.672.544 0 1.088.075 1.632.224.544.139.992.325 1.344.56l-.496.912c-.693-.48-1.52-.72-2.48-.72-.725 0-1.274.128-1.648.384-.362.256-.544.592-.544 1.008 0 .32.102.576.304.768.214.192.475.336.784.432.31.085.736.176 1.28.272.672.128 1.211.256 1.616.384.406.128.752.347 1.04.656.288.309.432.736.432 1.28 0 .736-.309 1.323-.928 1.76-.608.427-1.456.64-2.544.64zm14.192-.592c-.214.192-.48.341-.8.448-.31.096-.635.144-.976.144-.79 0-1.398-.213-1.824-.64-.427-.427-.64-1.029-.64-1.808v-5.088h-1.504v-.96h1.504v-1.84h1.136v1.84h2.56v.96h-2.56v5.024c0 .501.122.885.368 1.152.256.256.618.384 1.088.384.234 0 .458-.037.672-.112.224-.075.416-.181.576-.32l.4.816zm6.356-7.968c1.056 0 1.893.309 2.512.928.629.608.944 1.499.944 2.672V136H133.2v-4.768c0-.875-.219-1.541-.656-2-.438-.459-1.062-.688-1.872-.688-.907 0-1.627.272-2.16.816-.523.533-.784 1.275-.784 2.224V136h-1.136v-11.872h1.136v4.928a3.078 3.078 0 011.28-1.136c.544-.267 1.168-.4 1.872-.4zm13.899 4.624h-7.04c.064.875.4 1.584 1.008 2.128.608.533 1.376.8 2.304.8.523 0 1.003-.091 1.44-.272a3.221 3.221 0 001.136-.832l.64.736a3.588 3.588 0 01-1.408 1.024 4.668 4.668 0 01-1.84.352c-.864 0-1.632-.181-2.304-.544a4.053 4.053 0 01-1.552-1.536c-.373-.651-.56-1.387-.56-2.208 0-.821.176-1.557.528-2.208a3.963 3.963 0 011.472-1.52 4.153 4.153 0 012.112-.544c.779 0 1.478.181 2.096.544a3.84 3.84 0 011.456 1.52c.352.64.528 1.376.528 2.208l-.016.352zm-4.064-3.648c-.81 0-1.493.261-2.048.784-.544.512-.853 1.184-.928 2.016h5.968c-.074-.832-.389-1.504-.944-2.016-.544-.523-1.226-.784-2.048-.784zm14.916-.976c.789 0 1.504.181 2.144.544.64.352 1.141.853 1.504 1.504s.544 1.392.544 2.224c0 .843-.181 1.589-.544 2.24a3.89 3.89 0 01-1.504 1.52c-.629.352-1.344.528-2.144.528a4.096 4.096 0 01-1.856-.416 3.582 3.582 0 01-1.344-1.248v4.688h-1.136v-11.52h1.088v1.664a3.51 3.51 0 011.344-1.28c.565-.299 1.2-.448 1.904-.448zm-.08 7.552c.587 0 1.12-.133 1.6-.4.48-.277.853-.667 1.12-1.168.277-.501.416-1.072.416-1.712 0-.64-.139-1.205-.416-1.696a2.885 2.885 0 00-1.12-1.168 3.143 3.143 0 00-1.6-.416c-.597 0-1.136.139-1.616.416a3.027 3.027 0 00-1.12 1.168c-.267.491-.4 1.056-.4 1.696 0 .64.133 1.211.4 1.712.277.501.651.891 1.12 1.168.48.267 1.019.4 1.616.4zm7.676-5.84a2.76 2.76 0 011.184-1.28c.533-.288 1.189-.432 1.968-.432v1.104l-.272-.016c-.886 0-1.579.272-2.08.816-.502.544-.752 1.307-.752 2.288V136h-1.136v-8.416h1.088v1.648zm8.57 6.848c-.81 0-1.541-.181-2.192-.544a4.089 4.089 0 01-1.536-1.536c-.373-.651-.56-1.387-.56-2.208 0-.821.187-1.557.56-2.208a3.977 3.977 0 011.536-1.52c.651-.363 1.382-.544 2.192-.544.811 0 1.542.181 2.192.544a3.852 3.852 0 011.52 1.52c.374.651.56 1.387.56 2.208 0 .821-.186 1.557-.56 2.208a3.957 3.957 0 01-1.52 1.536c-.65.363-1.381.544-2.192.544zm0-1.008c.598 0 1.131-.133 1.6-.4.48-.277.854-.667 1.12-1.168.267-.501.4-1.072.4-1.712 0-.64-.133-1.211-.4-1.712a2.778 2.778 0 00-1.12-1.152 3.086 3.086 0 00-1.6-.416c-.597 0-1.136.139-1.616.416a2.923 2.923 0 00-1.12 1.152c-.266.501-.4 1.072-.4 1.712 0 .64.134 1.211.4 1.712.278.501.651.891 1.12 1.168.48.267 1.019.4 1.616.4zm5.344 4.112c-.352 0-.683-.048-.992-.144a1.877 1.877 0 01-.784-.4l.4-.864c.33.288.768.432 1.312.432.448 0 .789-.133 1.024-.4.245-.267.368-.661.368-1.184v-9.04h1.136v9.04c0 .789-.214 1.413-.64 1.872-.427.459-1.035.688-1.824.688zm1.904-13.456a.804.804 0 01-.592-.24.786.786 0 01-.24-.576c0-.213.08-.4.24-.56.16-.16.357-.24.592-.24.234 0 .432.08.592.24.16.149.24.331.24.544 0 .235-.08.432-.24.592a.805.805 0 01-.592.24zm11.062 6.416h-7.04c.064.875.4 1.584 1.008 2.128.608.533 1.376.8 2.304.8.523 0 1.003-.091 1.44-.272a3.221 3.221 0 001.136-.832l.64.736a3.588 3.588 0 01-1.408 1.024 4.668 4.668 0 01-1.84.352c-.864 0-1.632-.181-2.304-.544a4.053 4.053 0 01-1.552-1.536c-.373-.651-.56-1.387-.56-2.208 0-.821.176-1.557.528-2.208a3.963 3.963 0 011.472-1.52 4.153 4.153 0 012.112-.544c.779 0 1.478.181 2.096.544a3.84 3.84 0 011.456 1.52c.352.64.528 1.376.528 2.208l-.016.352zm-4.064-3.648c-.81 0-1.493.261-2.048.784-.544.512-.853 1.184-.928 2.016h5.968c-.074-.832-.389-1.504-.944-2.016-.544-.523-1.226-.784-2.048-.784zm9.881 7.584c-.832 0-1.579-.181-2.24-.544a3.964 3.964 0 01-1.536-1.52c-.374-.661-.56-1.403-.56-2.224 0-.821.186-1.557.56-2.208a3.964 3.964 0 011.536-1.52c.661-.363 1.408-.544 2.24-.544.725 0 1.37.144 1.936.432a3.166 3.166 0 011.36 1.232l-.848.576a2.604 2.604 0 00-1.056-.928 3.075 3.075 0 00-1.392-.32c-.608 0-1.158.139-1.648.416-.48.267-.859.651-1.136 1.152-.267.501-.4 1.072-.4 1.712 0 .651.133 1.227.4 1.728.277.491.656.875 1.136 1.152.49.267 1.04.4 1.648.4a3.2 3.2 0 001.392-.304 2.604 2.604 0 001.056-.928l.848.576c-.331.544-.784.96-1.36 1.248-.576.277-1.222.416-1.936.416zm10.053-.592c-.213.192-.48.341-.8.448a3.274 3.274 0 01-.976.144c-.789 0-1.397-.213-1.824-.64-.427-.427-.64-1.029-.64-1.808v-5.088h-1.504v-.96h1.504v-1.84h1.136v1.84h2.56v.96h-2.56v5.024c0 .501.123.885.368 1.152.256.256.619.384 1.088.384.235 0 .459-.037.672-.112.224-.075.416-.181.576-.32l.4.816z" fill="#fff"/></svg>